<svg xmlns="http://www.w3.org/2000/svg" width="74" height="70" fill="none"><path fill="#83B3D3" d="M70.076 46.7H4.11C1.805 46.7 0 48.6 0 51v3.5c0 2.4 1.905 4.3 4.11 4.3h.903v1.1c0 5.5 4.31 10.1 9.624 10.1h44.712c5.313 0 9.624-4.5 9.624-10.1v-1.1h.902c2.306 0 4.11-1.9 4.11-4.3V51c.201-2.3-1.704-4.3-3.91-4.3m-3.91 13.2c0 3.9-3.008 7-6.717 7H14.637c-3.71 0-6.717-3.2-6.717-7v-1.1h58.246zm5.113-5.4c0 .7-.602 1.3-1.203 1.3H4.01c-.702 0-1.203-.6-1.203-1.3V51c0-.7.602-1.3 1.203-1.3h65.965c.702 0 1.203.6 1.203 1.3.1 0 .1 3.5.1 3.5M15.64 38.4l5.413 4.1 5.313-4.1 5.313 4.1 5.314-4.1 5.413 4.1 5.314-4.1 5.313 4.1 5.413-4.1 5.314 4.1 6.215-4.7-1.704-2.5-4.511 3.4-5.313-4.1-5.414 4.1-5.313-4.1-5.314 4.1-5.413-4.1-5.314 4.1-5.313-4.1-5.313 4.1-5.414-4.1-5.313 4.1-4.511-3.4-1.705 2.5 6.216 4.7zM8.02 31.5h60.953c0-.6.1-1.2.1-1.9v-1.2C68.371 12.7 54.336 0 37.093 0 19.749 0 5.714 12.7 5.013 28.5v1.2c0 .6-.005 1.2.095 1.8zM37.093 3c15.64 0 28.471 11.3 29.073 25.5H8.02C8.622 14.4 21.454 3 37.093 3"/><path fill="#83B3D3" d="M37.093 17.3c1.052 0 1.905-.895 1.905-2s-.853-2-1.905-2-1.905.895-1.905 2 .853 2 1.905 2M29.273 12.2c1.052 0 1.905-.895 1.905-2s-.853-2-1.905-2-1.904.895-1.904 2 .852 2 1.904 2M44.812 12.2c1.052 0 1.905-.895 1.905-2s-.853-2-1.905-2-1.904.895-1.904 2 .852 2 1.904 2"/></svg>