<svg xmlns="http://www.w3.org/2000/svg" width="75" height="72" fill="none"><path fill="#83B3D3" d="M29.619 65h16.064V41.2H29.619zm2.911-20.9h10.14v18H32.53z"/><path fill="#83B3D3" d="M72.892 39.3 75 37.2l-9.94-9.9V0H51.104v13.6L37.45 0 0 37.2l2.108 2.1 7.832-7.8v37.6H5.924V72H70.08v-2.9h-5.12V31.5zM62.048 69.1H12.851V28.5L37.45 4.1l24.598 24.4zm0-44.7-7.931-7.9V2.9h7.931z"/><path fill="#83B3D3" d="M29.82 27.1c0 4.3 3.513 7.7 7.73 7.7 4.318 0 7.832-3.5 7.832-7.7 0-4.3-3.514-7.7-7.832-7.7-4.217 0-7.73 3.4-7.73 7.7m7.83-5c2.711 0 5.02 2.2 5.02 4.9s-2.208 4.9-5.02 4.9c-2.71 0-5.02-2.2-5.02-4.9s2.21-4.9 5.02-4.9M19.98 41.2h-3.012v3.9h3.012zM25.904 41.2h-3.012v3.9h3.012zM19.98 47.2h-3.012v3.9h3.012zM25.904 47.2h-3.012v3.9h3.012zM52.008 41.2h-3.012v3.9h3.012zM57.932 41.2H54.92v3.9h3.012zM52.008 47.2h-3.012v3.9h3.012zM57.932 47.2H54.92v3.9h3.012z"/></svg>