<svg xmlns="http://www.w3.org/2000/svg" width="48" height="40" fill="none"><path fill="#83B3D3" fill-rule="evenodd" d="M35.116 13.948c.166-.546 0-.948-.795-.948h-2.625c-.668 0-.976.347-1.143.73 0 0-1.335 3.196-3.226 5.272-.612.602-.89.793-1.224.793-.167 0-.418-.191-.418-.738v-5.109c0-.656-.184-.948-.74-.948h-4.128c-.417 0-.668.304-.668.593 0 .621.946.765 1.043 2.513v3.798c0 .833-.153.984-.487.984-.89 0-3.055-3.211-4.34-6.885-.249-.715-.5-1.003-1.172-1.003h-2.627c-.75 0-.9.347-.9.73 0 .682.89 4.07 4.145 8.551C17.981 25.341 21.036 27 23.82 27c1.67 0 1.875-.368 1.875-1.003v-2.313c0-.737.158-.884.687-.884.39 0 1.057.192 2.615 1.667C30.776 26.216 31.07 27 32.071 27h2.625c.75 0 1.126-.368.91-1.096-.238-.724-1.088-1.775-2.215-3.022-.612-.71-1.53-1.475-1.809-1.858-.389-.491-.278-.71 0-1.147 0 0 3.2-4.426 3.533-5.929z" clip-rule="evenodd"/></svg>